<svg xmlns="http://www.w3.org/2000/svg" viewBox="0 0 100.71 112.82"><defs><style>.cls-1{fill:#86c3d0;}.cls-2{fill:#fff;}.cls-3{fill:none;stroke:#fff;stroke-miterlimit:10;stroke-width:2px;}.cls-4{font-size:12px;fill:#1d1d1b;font-family:MyriadPro-Regular, Myriad Pro;}.cls-5{letter-spacing:0em;}.cls-6{letter-spacing:0em;}.cls-7{letter-spacing:-0.04em;}.cls-8{letter-spacing:-0.01em;}.cls-9{letter-spacing:0em;}.cls-10{letter-spacing:-0.01em;}.cls-11{letter-spacing:0em;}.cls-12{letter-spacing:0em;}.cls-13{letter-spacing:-0.02em;}.cls-14{letter-spacing:-0.01em;}.cls-15{letter-spacing:0.01em;}.cls-16{letter-spacing:0.01em;}.cls-17{letter-spacing:0em;}</style></defs><g id="API"><path class="cls-1" d="M50.35,13.37a43,43,0,1,0,43.05,43A43,43,0,0,0,50.35,13.37Z"/><path class="cls-2" d="M46.7,48.21a8.31,8.31,0,1,1-8.3,8.31A8.32,8.32,0,0,1,46.7,48.21Zm0,14.9a6.59,6.59,0,1,0-6.58-6.59A6.6,6.6,0,0,0,46.7,63.11Z"/><path class="cls-2" d="M25.59,34a6.08,6.08,0,1,1-6.08,6.08A6.09,6.09,0,0,1,25.59,34Zm0,10.43a4.35,4.35,0,1,0-4.35-4.35A4.36,4.36,0,0,0,25.59,44.44Z"/><path class="cls-2" d="M25.59,66.66a6.07,6.07,0,1,1-6.08,6.07A6.08,6.08,0,0,1,25.59,66.66Zm0,10.42a4.35,4.35,0,1,0-4.35-4.35A4.36,4.36,0,0,0,25.59,77.08Z"/><path class="cls-2" d="M41.44,60.93a.86.86,0,0,1,.44,1.6L29.72,69.79a.85.85,0,0,1-1.18-.3.87.87,0,0,1,.3-1.18L41,61.05A.86.86,0,0,1,41.44,60.93Z"/><path class="cls-2" d="M29.28,43.13a.88.88,0,0,1,.44.12l12.16,7.27A.86.86,0,1,1,41,52L28.84,44.73a.86.86,0,0,1,.44-1.6Z"/><line class="cls-3" x1="53.29" y1="56.52" x2="81.2" y2="56.52"/></g><g id="HOSTING"><text class="cls-4" transform="translate(100.71 -4.98)"><tspan class="cls-5">R</tspan><tspan x="6.5" y="0">eg</tspan><tspan class="cls-6" x="19.22" y="0">e</tspan><tspan x="25.2" y="0">x</tspan><tspan class="cls-7" x="30.76" y="0"> </tspan><tspan class="cls-8" x="32.81" y="0">T</tspan><tspan class="cls-9" x="38.69" y="0">h</tspan><tspan class="cls-10" x="45.35" y="0">r</tspan><tspan x="49.15" y="0">e</tspan><tspan class="cls-11" x="55.16" y="0">a</tspan><tspan class="cls-12" x="60.9" y="0">t </tspan><tspan class="cls-13" x="67.42" y="0">P</tspan><tspan class="cls-10" x="73.61" y="0">r</tspan><tspan x="77.41" y="0">o</tspan><tspan class="cls-14" x="84" y="0">t</tspan><tspan x="87.9" y="0">e</tspan><tspan class="cls-15" x="93.91" y="0">c</tspan><tspan class="cls-12" x="99.44" y="0">tion</tspan></text><text class="cls-4" transform="translate(17.93 -4.98)"><tspan class="cls-16">R</tspan><tspan class="cls-17" x="6.6" y="0">a</tspan><tspan class="cls-14" x="12.34" y="0">t</tspan><tspan x="16.24" y="0">e Limiting</tspan></text></g></svg>